<svg xmlns="http://www.w3.org/2000/svg" width="340" height="325" viewBox="0 0 340 325"><defs><clipPath id="a"><path d="M0 25h300v300H0z"/></clipPath></defs><path fill="none" stroke="#000" d="M0 325V25M27.273 325V25M54.545 325V25M81.818 325V25M109.091 325V25M136.364 325V25M163.636 325V25M190.909 325V25M218.182 325V25M245.455 325V25M272.727 325V25M300 325V25M0 325h300M0 297.727h300M0 270.455h300M0 243.182h300M0 215.909h300M0 188.636h300M0 161.364h300M0 134.091h300M0 106.818h300M0 79.546h300M0 52.273h300M0 25h300" stroke-width="2" opacity=".1"/><path fill="none" stroke="#000" d="M7.05 292.128c-.35 2.1-4.2 5.25-5.25 5.6 1.05.35 4.9 3.5 5.25 5.6" stroke-width="2" stroke-linejoin="round" stroke-linecap="round"/><path fill="none" stroke="#000" d="M27.273 297.727H1.05" stroke-width="2"/><path fill="none" stroke="#000" d="M294.45 303.327c.35-2.1 4.2-5.25 5.25-5.6-1.05-.35-4.9-3.5-5.25-5.6" stroke-width="2" stroke-linejoin="round" stroke-linecap="round"/><path fill="none" stroke="#000" d="M27.273 297.727H298.95" stroke-width="2"/><path fill="none" stroke="#000" d="M22.423 318.7c2.1.35 5.25 4.2 5.6 5.25.35-1.05 3.5-4.9 5.6-5.25" stroke-width="2" stroke-linejoin="round" stroke-linecap="round"/><path fill="none" stroke="#000" d="M27.273 297.727v26.223" stroke-width="2"/><path fill="none" stroke="#000" d="M33.623 31.3c-2.1-.35-5.25-4.2-5.6-5.25-.35 1.05-3.5 4.9-5.6 5.25" stroke-width="2" stroke-linejoin="round" stroke-linecap="round"/><path fill="none" stroke="#000" d="M27.273 297.727V26.05" stroke-width="2"/><path fill="none" stroke="#000" d="M54.545 302.727v-10M81.818 302.727v-10M109.091 302.727v-10M136.364 302.727v-10M163.636 302.727v-10M190.909 302.727v-10M218.182 302.727v-10M245.455 302.727v-10M272.727 302.727v-10M22.273 270.455h10M22.273 243.182h10M22.273 215.909h10M22.273 188.636h10M22.273 161.364h10M22.273 134.091h10M22.273 106.818h10M22.273 79.546h10M22.273 52.273h10"/><ellipse cx="81.818" cy="106.818" rx="4" ry="4" fill="#11accd" stroke="#11accd" stroke-width="2" clip-path="url(#a)" stroke-dasharray="0"/><ellipse cx="136.364" cy="161.364" rx="4" ry="4" fill="#11accd" stroke="#11accd" stroke-width="2" clip-path="url(#a)" stroke-dasharray="0"/><ellipse cx="218.182" cy="134.091" rx="4" ry="4" fill="#11accd" stroke="#11accd" stroke-width="2" clip-path="url(#a)" stroke-dasharray="0"/><ellipse cx="245.455" cy="243.182" rx="4" ry="4" fill="#11accd" stroke="#11accd" stroke-width="2" clip-path="url(#a)" stroke-dasharray="0"/><ellipse cx="27.273" cy="243.182" rx="4" ry="4" fill="#11accd" stroke="#11accd" stroke-width="2" clip-path="url(#a)" stroke-dasharray="0"/><ellipse cx="136.364" cy="52.273" rx="4" ry="4" fill="#11accd" stroke="#11accd" stroke-width="2" clip-path="url(#a)" stroke-dasharray="0"/><ellipse cx="272.727" cy="188.636" rx="4" ry="4" fill="#11accd" stroke="#11accd" stroke-width="2" clip-path="url(#a)" stroke-dasharray="0"/></svg>
